<?xml version="1.0" standalone="no"?>
<!DOCTYPE svg PUBLIC "-//W3C//DTD SVG 20010904//EN"
 "http://www.w3.org/TR/2001/REC-SVG-20010904/DTD/svg10.dtd">
<svg version="1.0" xmlns="http://www.w3.org/2000/svg"
 width="1033.000000pt" height="1033.000000pt" viewBox="0 0 1033.000000 1033.000000"
 preserveAspectRatio="xMidYMid meet">
<metadata>
Created by potrace 1.14, written by Peter Selinger 2001-2017
</metadata>
<g transform="translate(0.000000,1033.000000) scale(0.100000,-0.100000)"
fill="#000000" stroke="none">
<path d="M4889 10326 c-2 -2 -50 -7 -106 -10 -55 -4 -112 -9 -125 -11 -12 -2
-50 -6 -83 -9 -67 -7 -88 -10 -190 -26 -38 -6 -86 -13 -105 -16 -29 -5 -146
-29 -290 -60 -60 -13 -189 -46 -231 -60 -25 -8 -56 -16 -68 -19 -80 -15 -484
-166 -646 -241 -33 -15 -62 -28 -65 -29 -9 -1 -243 -120 -305 -154 -154 -86
-427 -257 -433 -273 -2 -4 -8 -8 -14 -8 -8 0 -232 -162 -248 -180 -3 -3 -23
-18 -45 -35 -42 -31 -58 -44 -145 -121 -30 -26 -64 -55 -74 -64 -30 -23 -347
-340 -386 -385 -217 -248 -290 -343 -453 -582 -194 -285 -382 -642 -511 -971
-49 -124 -135 -368 -140 -396 -1 -6 -9 -33 -18 -61 -14 -43 -22 -71 -34 -120
-1 -5 -13 -55 -27 -110 -45 -178 -84 -396 -111 -615 -13 -110 -16 -140 -23
-234 -10 -132 -10 -635 0 -754 8 -90 11 -117 22 -207 2 -22 7 -62 10 -90 51
-441 211 -1000 416 -1453 27 -59 157 -320 180 -362 121 -215 373 -598 429
-650 3 -3 25 -31 49 -63 122 -165 437 -498 621 -658 47 -40 87 -76 90 -79 3
-3 39 -32 80 -65 41 -33 82 -65 90 -72 92 -76 321 -233 480 -330 436 -264 896
-459 1395 -588 154 -40 428 -96 530 -109 47 -6 194 -24 247 -31 173 -21 699
-27 893 -11 55 5 116 10 135 11 36 3 130 14 159 20 9 1 41 6 71 9 30 4 78 11
105 16 28 5 66 12 85 15 60 10 302 65 379 86 41 12 84 23 96 25 86 16 537 179
704 256 103 47 350 172 409 207 29 17 55 31 57 31 3 0 36 20 75 45 39 25 72
45 74 45 15 0 363 244 466 327 48 38 173 143 225 187 78 67 398 387 450 450
22 27 47 56 56 65 13 13 113 135 172 211 333 424 654 1038 821 1571 72 232
159 588 180 744 2 17 11 89 20 160 9 72 19 141 21 154 27 153 26 812 0 1026
-2 17 -7 58 -10 92 -3 34 -8 72 -10 84 -3 13 -7 41 -10 64 -6 42 -32 195 -39
230 -28 138 -42 200 -72 315 -20 74 -37 140 -38 145 -35 153 -198 574 -317
820 -201 416 -508 872 -808 1200 -69 75 -319 324 -377 375 -28 25 -66 59 -85
75 -19 17 -74 63 -124 103 -123 100 -116 94 -155 122 -19 13 -37 27 -40 30
-14 15 -242 168 -345 232 -358 220 -758 403 -1150 526 -118 37 -212 64 -225
64 -3 0 -15 4 -28 9 -12 5 -33 11 -45 13 -12 3 -83 18 -157 35 -74 17 -148 32
-165 35 -16 3 -41 8 -55 11 -14 3 -46 7 -71 10 -25 3 -55 7 -66 9 -11 3 -44 7
-73 11 -29 4 -60 8 -69 10 -9 1 -56 6 -106 10 -49 4 -99 10 -110 12 -23 5
-661 14 -666 9z"/>
</g>
</svg>
